IMDB Rating:6.8/10.0

GENRE: Animation | Adventure | Comedy 



General
Unique ID : 185535202211096318974149959385800785573 (0x8B94C7B910D481FF8BF73931D29C3EA5)
Complete name : Flushed Away
Format : Matroska
Format version : Version 4 / Version 2
File size : 1.20 GiB
Duration : 1h 21mn
Overall bit rate : 2 113 Kbps
Movie name : Flushed Away (2006) 720p BRRip X264 Hindi R@J@T
Encoded date : UTC 2013-03-05 13:28:33
Writing application : mkvmerge v6.0.0 ('Coming Up For Air') built on Jan 20 2013 09:52:00
Writing library : libebml v1.3.0 + libmatroska v1.4.0

Video
ID : 1
Format : AVC
Format/Info : Advanced Video Codec
Format profile : Baseline@L3.1
Format settings, CABAC : No
Format settings, ReFrames : 4 frames
Format settings, GOP : M=1, N=12
Codec ID : V_MPEG4/ISO/AVC
Duration : 1h 21mn
Bit rate : 1 943 Kbps
Width : 1 280 pixels
Height : 680 pixels
Display aspect ratio : 16:9
Original display aspect ratio : 16:9
Frame rate mode : Constant
Frame rate : 25.000 fps
Standard : PAL
Color space : YUV
Chroma subsampling : 4:2:0
Bit depth : 8 bits
Scan type : Progressive
Bits/(Pixel*Frame) : 0.089
Stream size : 1.10 GiB (92%)
Title : R@J@T
Language : English
Default : Yes
Forced : No
Color primaries : BT.601 PAL
Transfer characteristics : BT.470 System B, BT.470 System G
Matrix coefficients : BT.601

Audio
ID : 2
Format : AC-3
Format/Info : Audio Coding 3
Mode extension : CM (complete main)
Format settings, Endianness : Big
Codec ID : A_AC3
Duration : 1h 21mn
Bit rate mode : Constant
Bit rate : 128 Kbps
Channel(s) : 2 channels
Channel positions : Front: L R
Sampling rate : 44.1 KHz
Bit depth : 16 bits
Compression mode : Lossy
Stream size : 74.3 MiB (6%)
Title : R@J@T
Language : Hindi
Default : Yes
Forced : No



SPECIAL NOTE: CHECK SCREEN SHOTS (INSIDE THE TORRENT) AND SAMPLE BEFORE DOWNLOAD FOR SATISFACTION.


IF YOU LIKE MY WORK PLEASE SEED THE TORRENT



THANKS 
R@J@T